#!OML:ASF H:\MichaelJackson\Top Level 1\Subject 1\Session 1\male.ASF
:FULLY-SPECIFIED
:DEGREES
1722
root -3.91619 16.0241 26.478 -172.272 -190.434 -178.171
lowerback -3.95854 -3.12185 1.26795
upperback -2.03211 -4.19111 -3.73693
thorax -0.248982 -2.13458 -4.70633
lowerneck -7.42859 -4.30415 0.504855
upperneck 5.31216 -6.10302 4.08278
head 3.13778 -2.86347 0.931726
rclavicle -5.69021e-015 -9.54166e-015
rhumerus 11.6509 -19.2772 -0.451615
rradius 27.4421
rwrist -3.78425
rhand -40.9399 -43.0369
rfingers 7.12502
rthumb -13.8737 -72.5541
lclavicle -5.69021e-015 -9.54166e-015
lhumerus -55.0185 -30.9333 109.307
lradius 55.5791
lwrist 17.1012
lhand 30.6351 23.2695
lfingers 7.12502
lthumb 54.277 41.9185
rfemur -26.7327 -12.2093 3.92262
rtibia 49.1796
rfoot -25.2259 2.79402
rtoes -22.7899
lfemur -7.32364 -12.8976 -0.751962
ltibia 23.8656
lfoot -34.1693 -5.44613
ltoes -25.684
1723
root -3.91541 16.0236 26.4793 -172.261 -190.422 -178.157
lowerback -3.98061 -3.11471 1.20717
upperback -2.02017 -4.17882 -3.7318
thorax -0.218373 -2.12708 -4.66837
lowerneck -7.49653 -4.32183 0.517501
upperneck 5.34258 -6.12969 4.07038
head 3.16076 -2.87539 0.922406
rclavicle 6.5102e-015 1.43125e-014
rhumerus 11.5975 -19.2551 -0.372183
rradius 27.4747
rwrist -3.8201
rhand -41.4892 -43.6862
rfingers 7.12502
rthumb -14.403 -73.1664
lclavicle 6.5102e-015 1.43125e-014
lhumerus -54.9649 -30.9397 109.315
lradius 55.5447
lwrist 17.0706
lhand 30.6526 23.2197
lfingers 7.12502
lthumb 54.2927 41.8579
rfemur -26.7475 -12.1897 3.90541
rtibia 49.1909
rfoot -25.2212 2.79058
rtoes -22.7279
lfemur -7.32541 -12.8718 -0.765909
ltibia 23.87
lfoot -34.1877 -5.46519
ltoes -25.6578
1724
root -3.91359 16.0227 26.4817 -172.234 -190.433 -178.157
lowerback -4.05091 -3.10719 1.17287
upperback -1.99279 -4.16613 -3.72101
thorax -0.146461 -2.11876 -4.64305
lowerneck -7.56513 -4.34997 0.503493
upperneck 5.33693 -6.16765 4.08026
head 3.17363 -2.89332 0.924581
rclavicle -3.7943e-014 -1.27222e-014
rhumerus 11.6635 -19.5666 -0.434738
rradius 27.4364
rwrist -3.64955
rhand -41.9091 -44.5845
rfingers 7.12502
rthumb -14.8076 -74.0355
lclavicle -3.7943e-014 -1.27222e-014
lhumerus -54.8796 -30.9975 109.337
lradius 55.5052
lwrist 17.0789
lhand 30.6517 23.2759
lfingers 7.12502
lthumb 54.2919 41.9147
rfemur -26.7629 -12.2215 3.90298
rtibia 49.1994
rfoot -25.2249 2.79939
rtoes -22.7976
lfemur -7.35252 -12.8713 -0.760105
ltibia 23.878
lfoot -34.2247 -5.4683
ltoes -25.7049
1725
root -3.91212 16.022 26.484 -172.245 -190.435 -178.17
lowerback -4.02282 -3.08101 1.23363
upperback -1.98479 -4.13333 -3.78016
thorax -0.159929 -2.10347 -4.73632
lowerneck -7.66474 -4.3815 0.538434
upperneck 5.3755 -6.22222 4.14668
head 3.2086 -2.91493 0.9348
rclavicle -1.84621e-014 -1.59028e-014
rhumerus 11.5792 -19.6417 -0.450274
rradius 27.4161
rwrist -3.71658
rhand -41.9649 -44.8475
rfingers 7.12502
rthumb -14.8614 -74.2945
lclavicle -1.84621e-014 -1.59028e-014
lhumerus -54.9011 -31.1295 109.318
lradius 55.48
lwrist 17.0783
lhand 30.641 23.2666
lfingers 7.12502
lthumb 54.2823 41.9119
rfemur -26.747 -12.216 3.91019
rtibia 49.207
rfoot -25.2169 2.79407
rtoes -22.7397
lfemur -7.33969 -12.8879 -0.748171
ltibia 23.8933
lfoot -34.2317 -5.4952
ltoes -25.6371
1726
root -3.91109 16.021 26.4859 -172.244 -190.437 -178.193
lowerback -4.09749 -3.05362 1.21643
upperback -1.92454 -4.09381 -3.77584
thorax -0.051011 -2.08082 -4.728
lowerneck -7.71438 -4.41953 0.485549
upperneck 5.31944 -6.27252 4.23419
head 3.20564 -2.93802 0.969116
rclavicle 5.53367e-014 3.18055e-015
rhumerus 11.4806 -19.6803 -0.348156
rradius 27.3915
rwrist -3.80887
rhand -42.0162 -45.1385
rfingers 7.12502
rthumb -14.9108 -74.5819
lclavicle 5.53367e-014 3.18055e-015
lhumerus -54.837 -31.2607 109.324
lradius 55.5023
lwrist 17.0874
lhand 30.7372 23.2957
lfingers 7.12502
lthumb 54.3685 41.8815
rfemur -26.7508 -12.2096 3.93502
rtibia 49.2124
rfoot -25.2213 2.78735
rtoes -22.7302
lfemur -7.34978 -12.8614 -0.718764
ltibia 23.9142
lfoot -34.2662 -5.50927
ltoes -25.6572
1727
root -3.90957 16.02 26.4875 -172.256 -190.467 -178.199
lowerback -4.09855 -3.06684 1.19604
upperback -1.9101 -4.11034 -3.7612
thorax -0.034455 -2.08835 -4.70237
lowerneck -7.71781 -4.42902 0.448419
upperneck 5.27899 -6.2813 4.25828
head 3.19502 -2.943 0.983153
rclavicle -1.30204e-014 4.77083e-015
rhumerus 11.4215 -19.4989 -0.221169
rradius 27.4188
rwrist -3.95677
rhand -41.958 -45.2763
rfingers 7.12502
rthumb -14.8547 -74.7237
lclavicle -1.30204e-014 4.77083e-015
lhumerus -54.7639 -31.2127 109.314
lradius 55.4289
lwrist 17.038
lhand 30.768 23.2222
lfingers 7.12502
lthumb 54.396 41.7889
rfemur -26.7205 -12.2208 3.9343
rtibia 49.2189
rfoot -25.2473 2.74344
rtoes -22.7781
lfemur -7.35272 -12.8403 -0.705813
ltibia 23.9321
lfoot -34.2769 -5.61978
ltoes -25.5241
1728
root -3.90861 16.0193 26.49 -172.26 -190.477 -178.212
lowerback -4.06316 -3.07996 1.22071
upperback -1.94855 -4.1301 -3.7742
thorax -0.0984001 -2.10015 -4.72667
lowerneck -7.64963 -4.42565 0.437725
upperneck 5.2709 -6.27598 4.28328
head 3.18059 -2.94075 0.995
rclavicle -3.79927e-014 -1.82882e-014
rhumerus 11.5178 -19.5628 -0.311022
rradius 27.306
rwrist -3.71326
rhand -41.5269 -44.6368
rfingers 7.12502
rthumb -14.4393 -74.1145
lclavicle -3.79927e-014 -1.82882e-014
lhumerus -54.8364 -31.1667 109.312
lradius 55.4483
lwrist 17.0665
lhand 30.6987 23.3239
lfingers 7.12502
lthumb 54.334 41.9336
rfemur -26.7073 -12.2235 3.94529
rtibia 49.2281
rfoot -25.2435 2.7606
rtoes -22.6382
lfemur -7.35412 -12.8362 -0.694486
ltibia 23.9508
lfoot -34.3021 -5.60398
ltoes -25.5598
1729
root -3.90808 16.0189 26.4922 -172.264 -190.475 -178.221
lowerback -4.11104 -3.07854 1.17467
upperback -1.9128 -4.1251 -3.75359
thorax -0.0294892 -2.09546 -4.68358
lowerneck -7.63915 -4.4388 0.399339
upperneck 5.19493 -6.2883 4.31669
head 3.15564 -2.94806 1.01267
rclavicle 2.82274e-014 -1.59028e-014
rhumerus 11.5626 -19.6754 -0.304433
rradius 27.2431
rwrist -3.58641
rhand -40.7119 -43.4027
rfingers 7.12502
rthumb -13.654 -72.9348
lclavicle 2.82274e-014 -1.59028e-014
lhumerus -54.7575 -31.1721 109.298
lradius 55.4277
lwrist 17.1008
lhand 30.7116 23.288
lfingers 7.12502
lthumb 54.3455 41.8897
rfemur -26.7051 -12.2046 3.95545
rtibia 49.2416
rfoot -25.2471 2.7365
rtoes -22.6353
lfemur -7.3508 -12.8776 -0.687445
ltibia 23.9679
lfoot -34.308 -5.60039
ltoes -25.5211
1730
root -3.90794 16.0178 26.494 -172.259 -190.487 -178.19
lowerback -4.05875 -3.08051 1.17205
upperback -1.94274 -4.1287 -3.81215
thorax -0.0941471 -2.09913 -4.73868
lowerneck -7.63448 -4.44523 0.433682
upperneck 5.20963 -6.3063 4.38524
head 3.16186 -2.95342 1.02812
rclavicle -2.09718e-014 -7.95139e-015
rhumerus 11.515 -19.6497 -0.358
rradius 27.2176
rwrist -3.59968
rhand -40.0206 -42.6158
rfingers 7.12502
rthumb -12.9876 -72.1916
lclavicle -2.09718e-014 -7.95139e-015
lhumerus -54.8533 -31.2267 109.27
lradius 55.4643
lwrist 17.1332
lhand 30.7202 23.3203
lfingers 7.12502
lthumb 54.3533 41.9166
rfemur -26.7039 -12.2093 3.92107
rtibia 49.2593
rfoot -25.2449 2.6865
rtoes -22.7507
lfemur -7.35276 -12.8492 -0.716369
ltibia 23.9767
lfoot -34.3274 -5.63259
ltoes -25.52
1731
root -3.9074 16.0168 26.4962 -172.266 -190.493 -178.18
lowerback -4.10376 -3.06913 1.12094
upperback -1.90484 -4.11004 -3.8062
thorax -0.0241395 -2.0876 -4.70747
lowerneck -7.66294 -4.47141 0.430555
upperneck 5.19307 -6.34029 4.37884
head 3.16217 -2.97052 1.02424
rclavicle -2.07481e-014 2.70347e-014
rhumerus 11.4541 -19.6889 -0.286143
rradius 27.2208
rwrist -3.63632
rhand -39.834 -42.2992
rfingers 7.12502
rthumb -12.8078 -71.8863
lclavicle -2.07481e-014 2.70347e-014
lhumerus -54.8468 -31.2911 109.29
lradius 55.5196
lwrist 17.142
lhand 30.6814 23.3072
lfingers 7.12502
lthumb 54.3185 41.9275
rfemur -26.6913 -12.2046 3.90235
rtibia 49.279
rfoot -25.2403 2.70183
rtoes -22.7014
lfemur -7.33455 -12.8743 -0.735682
ltibia 23.9762
lfoot -34.3427 -5.56662
ltoes -25.6354
1732
root -3.90672 16.016 26.4981 -172.272 -190.493 -178.161
lowerback -4.05753 -3.07782 1.10984
upperback -1.93957 -4.12255 -3.83331
thorax -0.0881189 -2.09547 -4.72557
lowerneck -7.64415 -4.48159 0.441116
upperneck 5.25359 -6.35878 4.39393
head 3.18011 -2.97792 1.0263
rclavicle -6.69656e-014 -2.94201e-014
rhumerus 11.3997 -19.5128 -0.273363
rradius 27.3084
rwrist -3.8777
rhand -39.8732 -42.1948
rfingers 7.12502
rthumb -12.8456 -71.7795
lclavicle -6.69656e-014 -2.94201e-014
lhumerus -54.9129 -31.2796 109.287
lradius 55.5247
lwrist 17.1408
lhand 30.8082 23.3607
lfingers 7.12502
lthumb 54.432 41.9023
rfemur -26.685 -12.173 3.87424
rtibia 49.2968
rfoot -25.2344 2.64232
rtoes -22.7304
lfemur -7.31415 -12.872 -0.763969
ltibia 23.9737
lfoot -34.354 -5.55853
ltoes -25.6425
1733
root -3.90631 16.0152 26.5012 -172.301 -190.502 -178.142
lowerback -4.05409 -3.08592 1.04353
upperback -1.92546 -4.1305 -3.8212
thorax -0.0704715 -2.09827 -4.6762
lowerneck -7.65117 -4.49674 0.429239
upperneck 5.28602 -6.37799 4.37372
head 3.19264 -2.98772 1.02033
rclavicle -2.29596e-014 8.74653e-015
rhumerus 11.4846 -19.6605 -0.328651
rradius 27.2568
rwrist -3.7566
rhand -39.8234 -41.9337
rfingers 7.12502
rthumb -12.7975 -71.5215
lclavicle -2.29596e-014 8.74653e-015
lhumerus -54.9041 -31.2644 109.311
lradius 55.5285
lwrist 17.1661
lhand 30.7889 23.3905
lfingers 7.12502
lthumb 54.4148 41.9442
rfemur -26.6457 -12.1548 3.84193
rtibia 49.3102
rfoot -25.213 2.64632
rtoes -22.654
lfemur -7.2748 -12.8276 -0.786705
ltibia 23.9704
lfoot -34.363 -5.64965
ltoes -25.5981
1734
root -3.90599 16.0148 26.5028 -172.306 -190.503 -178.157
lowerback -4.02223 -3.08876 1.03762
upperback -1.95657 -4.13528 -3.81561
thorax -0.11986 -2.10173 -4.66401
lowerneck -7.61168 -4.50839 0.394864
upperneck 5.32404 -6.3925 4.39175
head 3.20072 -2.99474 1.03197
rclavicle -1.75427e-014 -3.49861e-014
rhumerus 11.4774 -19.5945 -0.326459
rradius 27.2813
rwrist -3.75885
rhand -39.8166 -41.8124
rfingers 7.12502
rthumb -12.791 -71.4005
lclavicle -1.75427e-014 -3.49861e-014
lhumerus -54.9801 -31.271 109.364
lradius 55.5366
lwrist 17.2146
lhand 30.753 23.2964
lfingers 7.12502
lthumb 54.3826 41.8724
rfemur -26.6417 -12.116 3.86111
rtibia 49.3143
rfoot -25.1924 2.60417
rtoes -22.5898
lfemur -7.26677 -12.865 -0.770915
ltibia 23.9666
lfoot -34.3668 -5.63543
ltoes -25.5584
1735
root -3.90525 16.0145 26.5042 -172.309 -190.52 -178.175
lowerback -4.02625 -3.09439 1.03808
upperback -1.96033 -4.14286 -3.81136
thorax -0.121871 -2.10558 -4.66019
lowerneck -7.58942 -4.52246 0.378479
upperneck 5.34903 -6.41107 4.39965
head 3.20651 -3.00382 1.03669
rclavicle 1.83379e-014 1.74931e-014
rhumerus 11.521 -19.7056 -0.389837
rradius 27.2353
rwrist -3.49811
rhand -39.8256 -41.6204
rfingers 7.12502
rthumb -12.7997 -71.208
lclavicle 1.83379e-014 1.74931e-014
lhumerus -54.995 -31.2999 109.387
lradius 55.5317
lwrist 17.2781
lhand 30.786 23.3628
lfingers 7.12502
lthumb 54.4122 41.9182
rfemur -26.6292 -12.0951 3.8821
rtibia 49.3119
rfoot -25.1775 2.5477
rtoes -22.5725
lfemur -7.26011 -12.8312 -0.745934
ltibia 23.9588
lfoot -34.3776 -5.66732
ltoes -25.5714
